<svg xmlns="http://www.w3.org/2000/svg" viewBox="0 0 2800 673.83"><defs><style>.a{fill:#a3a2a2;}.a,.b{fill-rule:evenodd;}.b{fill:#f5f5f5;}</style></defs><title>Untitled-1</title><path class="a" d="M300.5,939.67V1146.8a125.17,125.17,0,0,1,23.05,11.09,2555.76,2555.76,0,0,0,408.71,202.65H2657.46A2752.43,2752.43,0,0,0,3078,1156.9a125.76,125.76,0,0,1,22.52-10.44V939.67H300.5Z" transform="translate(-300.5 -939.67)"/><path class="b" d="M3100.5,1254.19c-431.74,233.52-913.17,357.49-1400,359.31H1689c-489.19,0-966.35-123-1388.54-357.07V966.8a125.17,125.17,0,0,1,23.05,11.09c411.34,252.22,887.85,382.49,1376,382.65,482.21-1.81,958.87-134.47,1378.44-383.64a125.76,125.76,0,0,1,22.52-10.44v287.73Z" transform="translate(-300.5 -939.67)"/></svg>