<svg xmlns="http://www.w3.org/2000/svg" viewBox="0 0 94.59 78.52"><defs><style>.a{fill:#f5f5f5;}</style></defs><title>Untitled-2</title><path class="a" d="M1714.38,1330.28a80.44,80.44,0,0,1-26.79-5.13c-16.32-6-33.18-17.59-34.07-30.12h0c-0.75-10.5,10.33-24.51,26.92-34.06,18.79-10.82,37.49-12.19,50-3.67,9.41,6.39,15.88,18.66,17.31,32.8,1.3,12.81-1.92,24.56-8.6,31.43C1733,1327.85,1724,1330.28,1714.38,1330.28Zm-55.66-35.62c0.61,8.55,13.5,19.31,30.66,25.59,14.89,5.44,35.89,8.09,46.07-2.36,5.62-5.77,8.29-16,7.15-27.26-1.28-12.63-6.91-23.48-15.06-29-10.85-7.37-27.49-5.92-44.5,3.87-14.69,8.46-24.92,20.73-24.32,29.17h0Z" transform="translate(-1653.49 -1251.75)"/></svg>