<svg id="Layer_1" data-name="Layer 1" xmlns="http://www.w3.org/2000/svg" xmlns:xlink="http://www.w3.org/1999/xlink" viewBox="0 0 25.46 5.26"><defs><style>.cls-1{fill:none;}.cls-2{clip-path:url(#clip-path);}.cls-3{fill:#888;}</style><clipPath id="clip-path" transform="translate(-1503.27 -1424.37)"><rect class="cls-1" x="1503.27" y="1424.37" width="25.46" height="5.26"/></clipPath></defs><title>down-arrow</title><g id="Smile"><g class="cls-2"><g class="cls-2"><path class="cls-3" d="M1515.91,1429.63a23.4,23.4,0,0,1-12.15-3.37,1,1,0,1,1,1.05-1.74,21.55,21.55,0,0,0,11.18,3.08h0a1,1,0,0,1,0,2h-0.09Z" transform="translate(-1503.27 -1424.37)"/><path class="cls-3" d="M1516,1429.63a1,1,0,0,1,0-2,22.31,22.31,0,0,0,11.2-3.08,1,1,0,0,1,1,1.75,24.36,24.36,0,0,1-12.22,3.36h0Z" transform="translate(-1503.27 -1424.37)"/></g></g></g></svg>