<svg id="Layer_1" data-name="Layer 1" xmlns="http://www.w3.org/2000/svg" viewBox="0 0 315.02 88.83"><defs><style>.cls-1{fill:#53f99e;}.cls-2{fill:#231f20;}</style></defs><title>Untitled-1</title><path class="cls-1" d="M1604.38,1325.28a80.44,80.44,0,0,1-26.79-5.13c-16.32-6-33.18-17.59-34.07-30.12h0c-0.75-10.5,10.33-24.51,26.92-34.06,18.79-10.82,37.49-12.19,50-3.67,9.41,6.39,15.88,18.66,17.31,32.8,1.3,12.81-1.92,24.56-8.6,31.43C1623,1322.85,1614,1325.28,1604.38,1325.28Zm-55.66-35.62c0.61,8.55,13.5,19.31,30.66,25.59,14.89,5.44,35.89,8.09,46.07-2.36,5.62-5.77,8.29-16,7.15-27.26-1.28-12.63-6.91-23.48-15.06-29-10.85-7.37-27.49-5.92-44.5,3.87-14.69,8.46-24.92,20.73-24.32,29.17h0Z" transform="translate(-1543.49 -1246.75)"/><path class="cls-2" d="M1654.33,1286.43c0-10,6.85-18,16.82-18a13.53,13.53,0,0,1,11.66,5.9v-2.24a2.62,2.62,0,0,1,2.85-2.92h3a2.67,2.67,0,0,1,2.92,2.92v28.69a2.62,2.62,0,0,1-2.92,2.85h-3a2.57,2.57,0,0,1-2.85-2.85v-2.31a13.53,13.53,0,0,1-11.66,5.9C1661.18,1304.4,1654.33,1296.47,1654.33,1286.43Zm28.62,0c-0.07-6.17-4.07-10.71-10.1-10.71s-9.77,4.88-9.77,10.71,3.59,10.71,9.77,10.71S1682.88,1292.6,1683,1286.43Z" transform="translate(-1543.49 -1246.75)"/><path class="cls-2" d="M1700.85,1316v-43.88a2.62,2.62,0,0,1,2.85-2.92h3a2.67,2.67,0,0,1,2.92,2.92v2.24a13.37,13.37,0,0,1,11.66-5.9c10,0,16.75,7.93,16.75,18s-6.78,18-16.75,18a13.37,13.37,0,0,1-11.66-5.9V1316a2.62,2.62,0,0,1-2.92,2.85h-3A2.57,2.57,0,0,1,1700.85,1316Zm28.41-29.57c0-5.83-3.53-10.71-9.7-10.71s-10.1,4.54-10.17,10.71,4.14,10.71,10.17,10.71S1729.27,1292.33,1729.27,1286.43Z" transform="translate(-1543.49 -1246.75)"/><path class="cls-2" d="M1745.07,1316v-43.88a2.63,2.63,0,0,1,2.85-2.92h3a2.67,2.67,0,0,1,2.92,2.92v2.24a13.38,13.38,0,0,1,11.67-5.9c10,0,16.75,7.93,16.75,18s-6.78,18-16.75,18a13.38,13.38,0,0,1-11.67-5.9V1316a2.62,2.62,0,0,1-2.92,2.85h-3A2.57,2.57,0,0,1,1745.07,1316Zm28.42-29.57c0-5.83-3.53-10.71-9.7-10.71s-10.1,4.54-10.17,10.71,4.14,10.71,10.17,10.71S1773.48,1292.33,1773.48,1286.43Z" transform="translate(-1543.49 -1246.75)"/><path class="cls-2" d="M1788.26,1259c0-2.85,2.1-5.09,5.49-5.09s5.56,2.24,5.56,5.09-2.24,5.09-5.56,5.09S1788.26,1261.88,1788.26,1259Zm1.15,41.78v-28.69a2.62,2.62,0,0,1,2.85-2.92h3.05a2.62,2.62,0,0,1,2.85,2.92v28.69a2.57,2.57,0,0,1-2.85,2.85h-3.05A2.57,2.57,0,0,1,1789.42,1300.81Z" transform="translate(-1543.49 -1246.75)"/><path class="cls-2" d="M1807.79,1300.81v-43.34a2.57,2.57,0,0,1,2.85-2.85h3.05a2.57,2.57,0,0,1,2.85,2.85v43.34a2.57,2.57,0,0,1-2.85,2.85h-3.05A2.57,2.57,0,0,1,1807.79,1300.81Z" transform="translate(-1543.49 -1246.75)"/><path class="cls-2" d="M1831.12,1315.52l5.49-13.7-13-29.23c-0.88-2,.07-3.39,2.24-3.39h3.66a3.15,3.15,0,0,1,3.26,2.31l8.27,21,7.93-21a3.31,3.31,0,0,1,3.39-2.31H1856c2.1,0,3.05,1.36,2.17,3.39l-19,44.08a3.22,3.22,0,0,1-3.32,2.17h-2.51C1831.19,1318.85,1830.31,1317.49,1831.12,1315.52Z" transform="translate(-1543.49 -1246.75)"/><path class="cls-1" d="M1791.79,1335.58a60,60,0,0,1-31.17-8.65,2.61,2.61,0,1,1,2.71-4.46,55.29,55.29,0,0,0,28.69,7.89h0a2.61,2.61,0,0,1,0,5.22h-0.24Z" transform="translate(-1543.49 -1246.75)"/><path class="cls-1" d="M1792,1335.58a2.61,2.61,0,0,1,0-5.22,57.24,57.24,0,0,0,28.74-7.91,2.61,2.61,0,1,1,2.64,4.5,62.49,62.49,0,0,1-31.36,8.63h0Z" transform="translate(-1543.49 -1246.75)"/><path class="cls-1" d="M1582,1287.11c0-7.21,4.92-12.9,12.07-12.9a9.71,9.71,0,0,1,8.37,4.24v-1.61a1.88,1.88,0,0,1,2-2.09h2.14a1.92,1.92,0,0,1,2.09,2.09v20.6a1.88,1.88,0,0,1-2.09,2h-2.14a1.85,1.85,0,0,1-2-2v-1.66a9.71,9.71,0,0,1-8.37,4.24C1586.94,1300,1582,1294.32,1582,1287.11Zm20.55,0c0-4.43-2.92-7.69-7.25-7.69s-7,3.51-7,7.69,2.58,7.69,7,7.69S1602.52,1291.54,1602.57,1287.11Z" transform="translate(-1543.49 -1246.75)"/></svg>