<svg id="Layer_1" data-name="Layer 1" xmlns="http://www.w3.org/2000/svg" viewBox="0 0 67.94 68.06"><defs><style>.cls-1{fill:#9d9d9d;}</style></defs><path class="cls-1" d="M1699.11,1298.31a55.77,55.77,0,0,1-11.78-14.09l-1.53-2.88c0.53-.57,4.61-4.94,6.38-7.3,2.22-3-1-5.66-1-5.66s-9.06-9.05-11.12-10.85a4.44,4.44,0,0,0-4.44-.8c-4.34,2.8-8.83,5.24-9.1,17,0,11,8.32,22.28,17.32,31,9,9.89,21.41,19.8,33.38,19.79,11.72-.27,14.15-4.76,17-9.1a4.44,4.44,0,0,0-.8-4.44c-1.8-2.06-10.86-11.12-10.86-11.12s-2.68-3.22-5.66-1c-2.22,1.66-6.2,5.34-7.16,6.23A79.39,79.39,0,0,1,1699.11,1298.31Z" transform="translate(-1666.51 -1256.45)"/></svg>