<svg xmlns="http://www.w3.org/2000/svg" viewBox="0 0 106.4 142.2"><defs><style>.a{fill:#727373;}</style></defs><title>Untitled-1</title><path class="a" d="M1373.13,1396v-5c0-1.2.6-2,1.6-2h1.8c18.6-.6,31.2-10.6,31.2-30.8a65.84,65.84,0,0,0-2-15h-24.4a1.74,1.74,0,0,1-2-1.8v-3.2a1.89,1.89,0,0,1,2-2h22.2c-3.2-9.2-13.6-32.4-13.6-43.6,0-22.8,19.8-36.8,44.8-36.8,26.8,0,38,15.4,39.2,28.4a1.65,1.65,0,0,1-1.8,2h-6.6c-1.2,0-1.8-.6-2-2-1-9.4-9.8-19.4-28.6-19.4-19.8,0-34.2,10.6-34.2,27.8,0,11.2,10.6,34.4,13.4,43.6h37a1.89,1.89,0,0,1,2,2v3.2a1.74,1.74,0,0,1-2,1.8h-35a58.17,58.17,0,0,1,2.2,15.2c0,12.6-4.2,24.2-18,30.6v0.8c5.6-.6,15-0.8,19.8-0.8h57.4a1.89,1.89,0,0,1,2,2v5a1.89,1.89,0,0,1-2,2h-102.4A1.89,1.89,0,0,1,1373.13,1396Z" transform="translate(-1373.13 -1255.8)"/></svg>